<?xml version="1.0" encoding="UTF-8"?>
<!DOCTYPE svg PUBLIC "-//W3C//DTD SVG 1.1//EN" "http://www.w3.org/Graphics/SVG/1.1/DTD/svg11.dtd">
<svg xmlns="http://www.w3.org/2000/svg" version="1.1" width="451px" height="424px" style="shape-rendering:geometricPrecision; text-rendering:geometricPrecision; image-rendering:optimizeQuality; fill-rule:evenodd; clip-rule:evenodd" xmlns:xlink="http://www.w3.org/1999/xlink">
<g><path style="opacity:0.991" fill="#523fbe" d="M 303.5,26.5 C 305.181,28.0075 307.181,29.0075 309.5,29.5C 311.153,29.6596 312.486,30.3263 313.5,31.5C 314.659,33.2503 316.326,34.2503 318.5,34.5C 320.368,35.2632 322.035,36.2632 323.5,37.5C 324.035,39.4456 325.368,40.4456 327.5,40.5C 328.492,40.3284 329.158,40.6618 329.5,41.5C 330.035,43.4456 331.368,44.4456 333.5,44.5C 344.05,51.3783 353.383,59.7116 361.5,69.5C 362.833,72.8333 365.167,75.1667 368.5,76.5C 371.833,80.5 375.5,84.1667 379.5,87.5C 380.08,89.7488 381.413,91.4154 383.5,92.5C 384.167,92.5 384.5,92.8333 384.5,93.5C 385.419,96.0892 387.086,98.0892 389.5,99.5C 390.803,101.142 392.136,102.809 393.5,104.5C 393.427,106.027 394.094,107.027 395.5,107.5C 395.738,109.404 396.738,110.738 398.5,111.5C 398.427,113.027 399.094,114.027 400.5,114.5C 400.427,116.027 401.094,117.027 402.5,117.5C 402.5,117.833 402.5,118.167 402.5,118.5C 402.427,120.027 403.094,121.027 404.5,121.5C 412.035,132.908 417.702,145.241 421.5,158.5C 421.41,161.152 422.076,163.485 423.5,165.5C 427.606,177.035 429.94,189.035 430.5,201.5C 430.194,204.385 430.527,207.052 431.5,209.5C 432.886,230.876 430.886,251.876 425.5,272.5C 424.262,274.214 423.595,276.214 423.5,278.5C 408.147,328.012 378.147,365.845 333.5,392C 285.987,417.26 236.32,423.093 184.5,409.5C 182.485,408.076 180.152,407.41 177.5,407.5C 157.354,401.926 139.021,392.926 122.5,380.5C 122.027,379.094 121.027,378.427 119.5,378.5C 118.415,376.413 116.749,375.08 114.5,374.5C 113.089,372.086 111.089,370.419 108.5,369.5C 85.3162,350.485 65.4828,328.485 49,303.5C 26.4275,265.14 17.5941,223.806 22.5,179.5C 23.4992,174.172 24.4992,168.839 25.5,163.5C 25.7402,158.88 26.7402,154.547 28.5,150.5C 29.9238,148.485 30.5905,146.152 30.5,143.5C 34.6887,128.461 41.0221,114.461 49.5,101.5C 50.9063,101.027 51.573,100.027 51.5,98.5C 65.0076,75.9898 82.6743,57.3232 104.5,42.5C 106.027,42.573 107.027,41.9063 107.5,40.5C 120.293,31.1011 134.293,23.7678 149.5,18.5C 153.162,18.2766 156.495,17.2766 159.5,15.5C 162.486,15.0972 165.152,14.0972 167.5,12.5C 214.644,0.947337 259.978,5.614 303.5,26.5 Z M 304.5,32.5 C 304.973,33.9063 305.973,34.573 307.5,34.5C 309.426,35.4861 311.426,36.4861 313.5,37.5C 313.973,38.9063 314.973,39.573 316.5,39.5C 317.514,40.6737 318.847,41.3404 320.5,41.5C 320.973,42.9063 321.973,43.573 323.5,43.5C 323.5,43.8333 323.5,44.1667 323.5,44.5C 321.315,44.2964 319.315,43.6298 317.5,42.5C 315.574,40.7073 313.241,39.7073 310.5,39.5C 310.167,39.5 309.833,39.5 309.5,39.5C 308.713,37.8958 307.38,37.2291 305.5,37.5C 266.559,22.9019 226.892,20.5685 186.5,30.5C 183.284,30.3455 180.617,31.3455 178.5,33.5C 174.714,33.32 171.381,34.32 168.5,36.5C 167.508,36.3284 166.842,36.6618 166.5,37.5C 164.102,37.2594 162.102,37.9261 160.5,39.5C 133.826,50.3274 110.826,66.3274 91.5,87.5C 89.7376,88.2623 88.7376,89.5956 88.5,91.5C 70.6537,110.838 57.6537,133.172 49.5,158.5C 47.5275,161.084 46.5275,164.084 46.5,167.5C 45.661,168.641 44.9943,169.974 44.5,171.5C 44.6236,172.107 44.9569,172.44 45.5,172.5C 45.5,172.833 45.5,173.167 45.5,173.5C 43.9261,175.102 43.2594,177.102 43.5,179.5C 43.5,180.5 43.5,181.5 43.5,182.5C 42.0762,184.515 41.4095,186.848 41.5,189.5C 35.6435,230.209 41.3102,269.209 58.5,306.5C 57.2719,305.694 56.2719,304.694 55.5,303.5C 55.573,301.973 54.9063,300.973 53.5,300.5C 44.1555,284.138 37.1555,266.804 32.5,248.5C 32.2576,244.521 31.2576,240.854 29.5,237.5C 27.2354,221.921 26.2354,206.254 26.5,190.5C 28.089,181.33 29.4224,171.996 30.5,162.5C 38.2212,128.72 53.5545,99.0529 76.5,73.5C 77.8333,73.5 78.5,72.8333 78.5,71.5C 101.415,48.1984 128.415,31.1984 159.5,20.5C 162.152,20.5905 164.485,19.9238 166.5,18.5C 169.218,17.9573 171.885,17.2906 174.5,16.5C 178.078,16.4512 181.411,15.7846 184.5,14.5C 226.439,7.7418 266.439,13.7418 304.5,32.5 Z M 277.5,57.5 C 279.515,58.9238 281.848,59.5905 284.5,59.5C 294.87,63.5118 305.204,67.8452 315.5,72.5C 315.973,73.9063 316.973,74.573 318.5,74.5C 320.663,76.0828 322.996,77.4161 325.5,78.5C 325.973,79.9063 326.973,80.573 328.5,80.5C 364.101,113.059 382.434,153.725 383.5,202.5C 382.738,210.498 382.072,218.498 381.5,226.5C 380.883,226.611 380.383,226.944 380,227.5C 378.632,233.433 377.799,239.433 377.5,245.5C 377.5,245.833 377.5,246.167 377.5,246.5C 376.262,248.214 375.595,250.214 375.5,252.5C 373.638,256.75 371.972,261.083 370.5,265.5C 369.069,266.78 368.402,268.447 368.5,270.5C 366.597,273.979 364.93,277.646 363.5,281.5C 362.094,281.973 361.427,282.973 361.5,284.5C 360.662,284.842 360.328,285.508 360.5,286.5C 359.094,286.973 358.427,287.973 358.5,289.5C 357.662,289.842 357.328,290.508 357.5,291.5C 356.094,291.973 355.427,292.973 355.5,294.5C 349.31,302.869 342.643,310.869 335.5,318.5C 333.167,318.833 331.833,320.167 331.5,322.5C 329.833,323.5 328.5,324.833 327.5,326.5C 324.911,327.419 322.911,329.086 321.5,331.5C 313.538,337.487 305.205,342.987 296.5,348C 285.859,352.828 275.193,357.328 264.5,361.5C 261.848,361.41 259.515,362.076 257.5,363.5C 217.92,372.456 179.92,368.123 143.5,350.5C 142.713,348.896 141.38,348.229 139.5,348.5C 124.103,339.783 110.103,329.116 97.5,316.5C 97.573,314.973 96.9063,313.973 95.5,313.5C 86.8564,299.549 79.8564,284.882 74.5,269.5C 74.5905,266.848 73.9238,264.515 72.5,262.5C 60.1382,202.937 74.1382,150.603 114.5,105.5C 116.5,105.5 117.5,104.5 117.5,102.5C 140.799,79.6751 168.466,64.3417 200.5,56.5C 204.458,56.7489 208.124,56.0823 211.5,54.5C 233.667,51.6246 255.667,52.6246 277.5,57.5 Z M 363.5,112.5 C 365.833,115.167 368.167,117.833 370.5,120.5C 370.5,121.833 371.167,122.5 372.5,122.5C 375.806,128.149 379.139,133.816 382.5,139.5C 382.932,140.71 383.599,141.71 384.5,142.5C 388.147,150.118 391.481,157.785 394.5,165.5C 394.259,167.898 394.926,169.898 396.5,171.5C 402.776,193.62 404.776,215.953 402.5,238.5C 401.028,242.919 400.362,247.586 400.5,252.5C 400.5,253.167 400.5,253.833 400.5,254.5C 398.96,256.838 398.294,259.505 398.5,262.5C 396.335,269.825 393.835,277.159 391,284.5C 387.549,291.067 384.382,297.734 381.5,304.5C 380.094,304.973 379.427,305.973 379.5,307.5C 377.347,309.794 375.68,312.46 374.5,315.5C 373.094,315.973 372.427,316.973 372.5,318.5C 365.981,326.834 358.981,334.834 351.5,342.5C 349.5,342.5 348.5,343.5 348.5,345.5C 345.911,346.419 343.911,348.086 342.5,350.5C 319.784,368.353 294.118,380.019 265.5,385.5C 261.671,384.931 258.337,385.598 255.5,387.5C 254.833,387.5 254.167,387.5 253.5,387.5C 248.18,386.734 242.846,386.568 237.5,387C 238.056,387.383 238.389,387.883 238.5,388.5C 197.74,388.695 161.74,376.028 130.5,350.5C 132.5,351.167 134.5,351.833 136.5,352.5C 136.973,353.906 137.973,354.573 139.5,354.5C 148.383,359.349 157.717,363.016 167.5,365.5C 169.515,366.924 171.848,367.59 174.5,367.5C 206.124,375.86 237.458,375.193 268.5,365.5C 270.898,365.741 272.898,365.074 274.5,363.5C 295.416,356.052 314.083,345.052 330.5,330.5C 333.089,329.581 335.089,327.914 336.5,325.5C 355.793,306.601 369.793,284.268 378.5,258.5C 380.834,256.824 381.834,254.491 381.5,251.5C 381.5,251.167 381.5,250.833 381.5,250.5C 384.064,245.578 385.397,240.245 385.5,234.5C 390.544,207.704 389.21,181.37 381.5,155.5C 381.59,152.848 380.924,150.515 379.5,148.5C 377.237,139.984 373.904,131.984 369.5,124.5C 369.573,122.973 368.906,121.973 367.5,121.5C 366.424,118.352 365.091,115.352 363.5,112.5 Z M 127.5,348.5 C 129.027,348.427 130.027,349.094 130.5,350.5C 128.973,350.573 127.973,349.906 127.5,348.5 Z"/></g>
<g><path style="opacity:0.616" fill="#c2bbe6" d="M 167.5,12.5 C 165.152,14.0972 162.486,15.0972 159.5,15.5C 161.698,13.6031 164.364,12.6031 167.5,12.5 Z"/></g>
<g><path style="opacity:0.006" fill="#d7d2ef" d="M 184.5,14.5 C 181.411,15.7846 178.078,16.4512 174.5,16.5C 177.544,14.9886 180.878,14.322 184.5,14.5 Z"/></g>
<g><path style="opacity:0.839" fill="#9383d6" d="M 159.5,15.5 C 156.495,17.2766 153.162,18.2766 149.5,18.5C 152.505,16.7234 155.838,15.7234 159.5,15.5 Z"/></g>
<g><path style="opacity:0.016" fill="#e7e4f3" d="M 166.5,18.5 C 164.485,19.9238 162.152,20.5905 159.5,20.5C 161.515,19.0762 163.848,18.4095 166.5,18.5 Z"/></g>
<g><path style="opacity:0.153" fill="#ccc6ea" d="M 303.5,26.5 C 306.089,26.461 308.089,27.461 309.5,29.5C 307.181,29.0075 305.181,28.0075 303.5,26.5 Z"/></g>
<g><path style="opacity:0.016" fill="#e1def1" d="M 186.5,30.5 C 184.064,31.871 181.397,32.871 178.5,33.5C 180.617,31.3455 183.284,30.3455 186.5,30.5 Z"/></g>
<g><path style="opacity:0.129" fill="#d8d4ed" d="M 313.5,31.5 C 315.674,31.7497 317.341,32.7497 318.5,34.5C 316.326,34.2503 314.659,33.2503 313.5,31.5 Z"/></g>
<g><path style="opacity:0.18" fill="#cfc9ea" d="M 304.5,32.5 C 306.027,32.427 307.027,33.0937 307.5,34.5C 305.973,34.573 304.973,33.9063 304.5,32.5 Z"/></g>
<g><path style="opacity:0.831" fill="#9d8ed9" d="M 178.5,33.5 C 175.495,35.2766 172.162,36.2766 168.5,36.5C 171.381,34.32 174.714,33.32 178.5,33.5 Z"/></g>
<g><path style="opacity:0.894" fill="#9685d4" d="M 166.5,37.5 C 164.898,39.0739 162.898,39.7406 160.5,39.5C 162.102,37.9261 164.102,37.2594 166.5,37.5 Z"/></g>
<g><path style="opacity:0.231" fill="#cbc5e9" d="M 305.5,37.5 C 307.38,37.2291 308.713,37.8958 309.5,39.5C 307.847,39.3404 306.514,38.6737 305.5,37.5 Z"/></g>
<g><path style="opacity:0.286" fill="#c5bee6" d="M 313.5,37.5 C 315.027,37.427 316.027,38.0937 316.5,39.5C 314.973,39.573 313.973,38.9063 313.5,37.5 Z"/></g>
<g><path style="opacity:0.78" fill="#b3a7df" d="M 323.5,37.5 C 325.23,38.0256 326.564,39.0256 327.5,40.5C 325.368,40.4456 324.035,39.4456 323.5,37.5 Z"/></g>
<g><path style="opacity:0.2" fill="#d1ccec" d="M 310.5,39.5 C 313.241,39.7073 315.574,40.7073 317.5,42.5C 314.759,42.2927 312.426,41.2927 310.5,39.5 Z"/></g>
<g><path style="opacity:0.682" fill="#a599dd" d="M 107.5,40.5 C 107.027,41.9063 106.027,42.573 104.5,42.5C 104.973,41.0937 105.973,40.427 107.5,40.5 Z"/></g>
<g><path style="opacity:0.451" fill="#a89dde" d="M 320.5,41.5 C 322.027,41.427 323.027,42.0937 323.5,43.5C 321.973,43.573 320.973,42.9063 320.5,41.5 Z"/></g>
<g><path style="opacity:0.78" fill="#b4a9df" d="M 329.5,41.5 C 331.23,42.0256 332.564,43.0256 333.5,44.5C 331.368,44.4456 330.035,43.4456 329.5,41.5 Z"/></g>
<g><path style="opacity:0.075" fill="#c1b9e7" d="M 323.5,44.5 C 323.5,44.1667 323.5,43.8333 323.5,43.5C 325.027,43.427 326.027,44.0937 326.5,45.5C 325.833,45.5 325.5,45.8333 325.5,46.5C 324.508,46.6716 323.842,46.3382 323.5,45.5C 324.833,45.1667 324.833,44.8333 323.5,44.5 Z"/></g>
<g><path style="opacity:0.039" fill="#d8d4f0" d="M 329.5,47.5 C 330.627,48.1217 331.627,48.955 332.5,50C 330.86,50.3478 329.527,49.8478 328.5,48.5C 329.167,48.5 329.5,48.1667 329.5,47.5 Z"/></g>
<g><path style="opacity:0.071" fill="#d2ccee" d="M 211.5,54.5 C 208.124,56.0823 204.458,56.7489 200.5,56.5C 203.909,55.0966 207.575,54.4299 211.5,54.5 Z"/></g>
<g><path style="opacity:0.902" fill="#9080d5" d="M 277.5,57.5 C 280.152,57.4095 282.485,58.0762 284.5,59.5C 281.848,59.5905 279.515,58.9238 277.5,57.5 Z"/></g>
<g><path style="opacity:0.71" fill="#c4bae8" d="M 361.5,69.5 C 364.167,71.5 366.5,73.8333 368.5,76.5C 365.167,75.1667 362.833,72.8333 361.5,69.5 Z"/></g>
<g><path style="opacity:0.008" fill="#eae8f5" d="M 78.5,71.5 C 78.5,72.8333 77.8333,73.5 76.5,73.5C 76.8333,72.5 77.5,71.8333 78.5,71.5 Z"/></g>
<g><path style="opacity:0.427" fill="#b3a9e2" d="M 315.5,72.5 C 317.027,72.427 318.027,73.0937 318.5,74.5C 316.973,74.573 315.973,73.9063 315.5,72.5 Z"/></g>
<g><path style="opacity:0.486" fill="#ada2e0" d="M 325.5,78.5 C 327.027,78.427 328.027,79.0937 328.5,80.5C 326.973,80.573 325.973,79.9063 325.5,78.5 Z"/></g>
<g><path style="opacity:0.686" fill="#b7ade1" d="M 91.5,87.5 C 91.2624,89.4044 90.2624,90.7377 88.5,91.5C 88.7376,89.5956 89.7376,88.2623 91.5,87.5 Z"/></g>
<g><path style="opacity:0.447" fill="#c0b8e6" d="M 379.5,87.5 C 381.587,88.5846 382.92,90.2512 383.5,92.5C 381.413,91.4154 380.08,89.7488 379.5,87.5 Z"/></g>
<g><path style="opacity:0.294" fill="#bdb4e3" d="M 384.5,93.5 C 386.914,94.9108 388.581,96.9108 389.5,99.5C 387.086,98.0892 385.419,96.0892 384.5,93.5 Z"/></g>
<g><path style="opacity:0.447" fill="#b0a5e1" d="M 51.5,98.5 C 51.573,100.027 50.9063,101.027 49.5,101.5C 49.427,99.9731 50.0937,98.9731 51.5,98.5 Z"/></g>
<g><path style="opacity:0.014" fill="#f8f8f9" d="M 117.5,102.5 C 117.5,104.5 116.5,105.5 114.5,105.5C 115.167,104.167 116.167,103.167 117.5,102.5 Z"/></g>
<g><path style="opacity:0.224" fill="#b8b0e4" d="M 359.5,106.5 C 356.999,106.174 355.832,104.841 356,102.5C 357.376,103.705 358.542,105.038 359.5,106.5 Z"/></g>
<g><path style="opacity:0.341" fill="#c8c2e8" d="M 393.5,104.5 C 394.906,104.973 395.573,105.973 395.5,107.5C 394.094,107.027 393.427,106.027 393.5,104.5 Z"/></g>
<g><path style="opacity:0.459" fill="#beb7e4" d="M 395.5,107.5 C 397.262,108.262 398.262,109.596 398.5,111.5C 396.738,110.738 395.738,109.404 395.5,107.5 Z"/></g>
<g><path style="opacity:0.247" fill="#d0cbea" d="M 398.5,111.5 C 399.906,111.973 400.573,112.973 400.5,114.5C 399.094,114.027 398.427,113.027 398.5,111.5 Z"/></g>
<g><path style="opacity:0.145" fill="#dedaf1" d="M 400.5,114.5 C 401.906,114.973 402.573,115.973 402.5,117.5C 401.094,117.027 400.427,116.027 400.5,114.5 Z"/></g>
<g><path style="opacity:0.486" fill="#a99ede" d="M 402.5,118.5 C 403.906,118.973 404.573,119.973 404.5,121.5C 403.094,121.027 402.427,120.027 402.5,118.5 Z"/></g>
<g><path style="opacity:0.012" fill="#d6d1ed" d="M 370.5,120.5 C 371.5,120.833 372.167,121.5 372.5,122.5C 371.167,122.5 370.5,121.833 370.5,120.5 Z"/></g>
<g><path style="opacity:0.435" fill="#b1a7df" d="M 367.5,121.5 C 368.906,121.973 369.573,122.973 369.5,124.5C 368.094,124.027 367.427,123.027 367.5,121.5 Z"/></g>
<g><path style="opacity:0.387" fill="#b5aee4" d="M 111.5,129.5 C 108.612,128.99 106.279,129.656 104.5,131.5C 103.596,130.791 103.263,129.791 103.5,128.5C 106.385,128.194 109.052,128.527 111.5,129.5 Z"/></g>
<g><path style="opacity:0.975" fill="#5b46c1" d="M 111.5,129.5 C 121.208,154.951 130.541,180.617 139.5,206.5C 139.66,208.153 140.326,209.486 141.5,210.5C 148.697,230.091 155.697,249.758 162.5,269.5C 162.312,271.103 162.812,272.437 164,273.5C 164.464,272.906 164.631,272.239 164.5,271.5C 167.298,262.438 170.298,253.438 173.5,244.5C 174.674,243.486 175.34,242.153 175.5,240.5C 187.636,206.091 199.97,171.757 212.5,137.5C 213.043,137.44 213.376,137.107 213.5,136.5C 184.841,135.5 156.174,135.167 127.5,135.5C 127.5,133.5 127.5,131.5 127.5,129.5C 159.5,129.5 191.5,129.5 223.5,129.5C 216.229,150.979 208.563,172.312 200.5,193.5C 199.463,194.93 198.796,196.597 198.5,198.5C 187.109,230.503 175.609,262.503 164,294.5C 154.007,268.69 144.507,242.69 135.5,216.5C 135.34,214.847 134.674,213.514 133.5,212.5C 123.634,185.569 113.968,158.569 104.5,131.5C 106.279,129.656 108.612,128.99 111.5,129.5 Z"/></g>
<g><path style="opacity:0.981" fill="#4f3dbd" d="M 349.5,135.5 C 330.833,135.5 312.167,135.5 293.5,135.5C 293.5,188.167 293.5,240.833 293.5,293.5C 291.5,293.5 289.5,293.5 287.5,293.5C 287.832,240.664 287.499,187.997 286.5,135.5C 268.167,135.5 249.833,135.5 231.5,135.5C 231.5,133.167 231.5,130.833 231.5,128.5C 270.833,128.5 310.167,128.5 349.5,128.5C 349.5,130.833 349.5,133.167 349.5,135.5 Z"/></g>
<g><path style="opacity:0.347" fill="#bbb4e5" d="M 223.5,129.5 C 191.5,129.5 159.5,129.5 127.5,129.5C 127.5,131.5 127.5,133.5 127.5,135.5C 156.174,135.167 184.841,135.5 213.5,136.5C 213.376,137.107 213.043,137.44 212.5,137.5C 183.78,136.644 155.113,136.31 126.5,136.5C 126.5,133.833 126.5,131.167 126.5,128.5C 157.938,128.78 189.438,128.447 221,127.5C 222.225,127.862 223.391,128.362 224.5,129C 224.272,129.399 223.938,129.565 223.5,129.5 Z"/></g>
<g><path style="opacity:0.347" fill="#bbb4e5" d="M 231.5,135.5 C 249.833,135.5 268.167,135.5 286.5,135.5C 286.5,136.167 286.5,136.833 286.5,137.5C 268.069,136.846 249.735,136.179 231.5,135.5 Z"/></g>
<g><path style="opacity:0.824" fill="#ad9fe0" d="M 382.5,139.5 C 384.048,139.821 384.715,140.821 384.5,142.5C 383.599,141.71 382.932,140.71 382.5,139.5 Z"/></g>
<g><path style="opacity:0.867" fill="#9282d5" d="M 30.5,143.5 C 30.5905,146.152 29.9238,148.485 28.5,150.5C 28.4095,147.848 29.0762,145.515 30.5,143.5 Z"/></g>
<g><path style="opacity:0.886" fill="#9081d5" d="M 379.5,148.5 C 380.924,150.515 381.59,152.848 381.5,155.5C 380.076,153.485 379.41,151.152 379.5,148.5 Z"/></g>
<g><path style="opacity:0.718" fill="#c3bbe6" d="M 49.5,158.5 C 49.4725,161.916 48.4725,164.916 46.5,167.5C 46.5275,164.084 47.5275,161.084 49.5,158.5 Z"/></g>
<g><path style="opacity:0.894" fill="#8f7fd4" d="M 421.5,158.5 C 422.924,160.515 423.59,162.848 423.5,165.5C 422.076,163.485 421.41,161.152 421.5,158.5 Z"/></g>
<g><path style="opacity:0.006" fill="#dedaf1" d="M 394.5,165.5 C 395.738,167.214 396.405,169.214 396.5,171.5C 394.926,169.898 394.259,167.898 394.5,165.5 Z"/></g>
<g><path style="opacity:0.173" fill="#cdc6ea" d="M 30.5,162.5 C 29.4224,171.996 28.089,181.33 26.5,190.5C 26.5373,180.849 27.8706,171.516 30.5,162.5 Z"/></g>
<g><path style="opacity:0.533" fill="#d1ccec" d="M 46.5,167.5 C 46.7845,169.415 46.4511,171.081 45.5,172.5C 44.9569,172.44 44.6236,172.107 44.5,171.5C 44.9943,169.974 45.661,168.641 46.5,167.5 Z"/></g>
<g><path style="opacity:0.29" fill="#dbd6ef" d="M 25.5,163.5 C 24.4992,168.839 23.4992,174.172 22.5,179.5C 21.9033,179.265 21.5699,178.765 21.5,178C 22.1565,172.863 23.4898,168.029 25.5,163.5 Z"/></g>
<g><path style="opacity:0.69" fill="#bcb3e3" d="M 45.5,173.5 C 45.7406,175.898 45.0739,177.898 43.5,179.5C 43.2594,177.102 43.9261,175.102 45.5,173.5 Z"/></g>
<g><path style="opacity:0.596" fill="#c5bde7" d="M 43.5,182.5 C 43.5905,185.152 42.9238,187.485 41.5,189.5C 41.4095,186.848 42.0762,184.515 43.5,182.5 Z"/></g>
<g><path style="opacity:0.006" fill="#e2def3" d="M 200.5,193.5 C 201.326,195.548 200.659,197.215 198.5,198.5C 198.796,196.597 199.463,194.93 200.5,193.5 Z"/></g>
<g><path style="opacity:0.479" fill="#a89fde" d="M 349.5,135.5 C 331.341,136.497 313.008,136.83 294.5,136.5C 294.546,189.077 294.546,241.744 294.5,294.5C 291.615,294.806 288.948,294.473 286.5,293.5C 286.833,293.5 287.167,293.5 287.5,293.5C 289.5,293.5 291.5,293.5 293.5,293.5C 293.5,240.833 293.5,188.167 293.5,135.5C 312.167,135.5 330.833,135.5 349.5,135.5 Z"/></g>
<g><path style="opacity:0.005" fill="#eceaf6" d="M 139.5,206.5 C 141.176,207.183 141.843,208.517 141.5,210.5C 140.326,209.486 139.66,208.153 139.5,206.5 Z"/></g>
<g><path style="opacity:0.589" fill="#8e84d5" d="M 286.5,135.5 C 287.499,187.997 287.832,240.664 287.5,293.5C 287.167,293.5 286.833,293.5 286.5,293.5C 285.982,241.508 285.982,189.508 286.5,137.5C 286.5,136.833 286.5,136.167 286.5,135.5 Z"/></g>
<g><path style="opacity:0.635" fill="#b0a7e0" d="M 430.5,201.5 C 432.667,203.872 433,206.539 431.5,209.5C 430.527,207.052 430.194,204.385 430.5,201.5 Z"/></g>
<g><path style="opacity:0.017" fill="#e1ddf2" d="M 133.5,212.5 C 134.674,213.514 135.34,214.847 135.5,216.5C 133.824,215.817 133.157,214.483 133.5,212.5 Z"/></g>
<g><path style="opacity:0.014" fill="#e5e2f2" d="M 381.5,226.5 C 381.082,233.145 379.749,239.479 377.5,245.5C 377.799,239.433 378.632,233.433 380,227.5C 380.383,226.944 380.883,226.611 381.5,226.5 Z"/></g>
<g><path style="opacity:0.471" fill="#cfc9eb" d="M 175.5,240.5 C 175.34,242.153 174.674,243.486 173.5,244.5C 173.229,242.62 173.896,241.287 175.5,240.5 Z"/></g>
<g><path style="opacity:0.471" fill="#ccc6ea" d="M 29.5,237.5 C 31.2576,240.854 32.2576,244.521 32.5,248.5C 30.7424,245.146 29.7424,241.479 29.5,237.5 Z"/></g>
<g><path style="opacity:0.013" fill="#eceaf5" d="M 402.5,238.5 C 402.468,243.391 401.801,248.057 400.5,252.5C 400.362,247.586 401.028,242.919 402.5,238.5 Z"/></g>
<g><path style="opacity:0.022" fill="#dedaf0" d="M 385.5,234.5 C 385.397,240.245 384.064,245.578 381.5,250.5C 382.232,244.906 383.565,239.573 385.5,234.5 Z"/></g>
<g><path style="opacity:0.718" fill="#b1a6e1" d="M 377.5,246.5 C 377.741,248.898 377.074,250.898 375.5,252.5C 375.595,250.214 376.262,248.214 377.5,246.5 Z"/></g>
<g><path style="opacity:0.014" fill="#e0ddf1" d="M 381.5,251.5 C 381.834,254.491 380.834,256.824 378.5,258.5C 378.935,255.843 379.935,253.509 381.5,251.5 Z"/></g>
<g><path style="opacity:0.627" fill="#bab1e3" d="M 400.5,254.5 C 400.435,257.428 399.768,260.095 398.5,262.5C 398.294,259.505 398.96,256.838 400.5,254.5 Z"/></g>
<g><path style="opacity:0.902" fill="#9585d6" d="M 72.5,262.5 C 73.9238,264.515 74.5905,266.848 74.5,269.5C 73.0762,267.485 72.4095,265.152 72.5,262.5 Z"/></g>
<g><path style="opacity:0.075" fill="#e0dcf1" d="M 370.5,265.5 C 370.598,267.553 369.931,269.22 368.5,270.5C 368.402,268.447 369.069,266.78 370.5,265.5 Z"/></g>
<g><path style="opacity:0.341" fill="#bab2e5" d="M 162.5,269.5 C 163.167,270.167 163.833,270.833 164.5,271.5C 164.631,272.239 164.464,272.906 164,273.5C 162.812,272.437 162.312,271.103 162.5,269.5 Z"/></g>
<g><path style="opacity:0.018" fill="#dedaf1" d="M 425.5,272.5 C 425.741,274.898 425.074,276.898 423.5,278.5C 423.595,276.214 424.262,274.214 425.5,272.5 Z"/></g>
<g><path style="opacity:0.455" fill="#aea3e0" d="M 363.5,281.5 C 363.573,283.027 362.906,284.027 361.5,284.5C 361.427,282.973 362.094,281.973 363.5,281.5 Z"/></g>
<g><path style="opacity:0.443" fill="#aea3e0" d="M 360.5,286.5 C 360.573,288.027 359.906,289.027 358.5,289.5C 358.427,287.973 359.094,286.973 360.5,286.5 Z"/></g>
<g><path style="opacity:0.451" fill="#aea3e0" d="M 357.5,291.5 C 357.573,293.027 356.906,294.027 355.5,294.5C 355.427,292.973 356.094,291.973 357.5,291.5 Z"/></g>
<g><path style="opacity:0.498" fill="#a59add" d="M 53.5,300.5 C 54.9063,300.973 55.573,301.973 55.5,303.5C 54.0937,303.027 53.427,302.027 53.5,300.5 Z"/></g>
<g><path style="opacity:0.486" fill="#a89dde" d="M 381.5,304.5 C 381.573,306.027 380.906,307.027 379.5,307.5C 379.427,305.973 380.094,304.973 381.5,304.5 Z"/></g>
<g><path style="opacity:0.067" fill="#d5d1ef" d="M 60.5,311.5 C 62.0269,311.427 63.0269,312.094 63.5,313.5C 61.9731,313.573 60.9731,312.906 60.5,311.5 Z"/></g>
<g><path style="opacity:0.094" fill="#cdc8ec" d="M 62.5,314.5 C 64.0269,314.427 65.0269,315.094 65.5,316.5C 63.9731,316.573 62.9731,315.906 62.5,314.5 Z"/></g>
<g><path style="opacity:0.502" fill="#ada3e0" d="M 95.5,313.5 C 96.9063,313.973 97.573,314.973 97.5,316.5C 96.0937,316.027 95.427,315.027 95.5,313.5 Z"/></g>
<g><path style="opacity:0.533" fill="#a89dde" d="M 374.5,315.5 C 374.573,317.027 373.906,318.027 372.5,318.5C 372.427,316.973 373.094,315.973 374.5,315.5 Z"/></g>
<g><path style="opacity:0.012" fill="#f9f8fa" d="M 335.5,318.5 C 334.5,320.167 333.167,321.5 331.5,322.5C 331.833,320.167 333.167,318.833 335.5,318.5 Z"/></g>
<g><path style="opacity:0.008" fill="#e9e7f4" d="M 336.5,325.5 C 335.089,327.914 333.089,329.581 330.5,330.5C 331.911,328.086 333.911,326.419 336.5,325.5 Z"/></g>
<g><path style="opacity:0.694" fill="#a094d9" d="M 327.5,326.5 C 326.089,328.914 324.089,330.581 321.5,331.5C 322.911,329.086 324.911,327.419 327.5,326.5 Z"/></g>
<g><path style="opacity:0.467" fill="#c2bce8" d="M 121.5,344.5 C 120.373,343.878 119.373,343.045 118.5,342C 120.489,341.481 121.489,342.314 121.5,344.5 Z"/></g>
<g><path style="opacity:0.498" fill="#b5ace2" d="M 351.5,342.5 C 350.833,343.833 349.833,344.833 348.5,345.5C 348.5,343.5 349.5,342.5 351.5,342.5 Z"/></g>
<g><path style="opacity:0.012" fill="#ebe9f7" d="M 123.5,344.5 C 124.906,344.973 125.573,345.973 125.5,347.5C 124.094,347.027 123.427,346.027 123.5,344.5 Z"/></g>
<g><path style="opacity:0.067" fill="#dad5f0" d="M 139.5,348.5 C 141.38,348.229 142.713,348.896 143.5,350.5C 141.847,350.34 140.514,349.674 139.5,348.5 Z"/></g>
<g><path style="opacity:0.816" fill="#9181d5" d="M 348.5,345.5 C 347.089,347.914 345.089,349.581 342.5,350.5C 343.911,348.086 345.911,346.419 348.5,345.5 Z"/></g>
<g><path style="opacity:0.349" fill="#bcb4e3" d="M 136.5,352.5 C 138.027,352.427 139.027,353.094 139.5,354.5C 137.973,354.573 136.973,353.906 136.5,352.5 Z"/></g>
<g><path style="opacity:0.894" fill="#8c7dd3" d="M 264.5,361.5 C 262.485,362.924 260.152,363.59 257.5,363.5C 259.515,362.076 261.848,361.41 264.5,361.5 Z"/></g>
<g><path style="opacity:0.004" fill="#d7d2ee" d="M 274.5,363.5 C 272.898,365.074 270.898,365.741 268.5,365.5C 270.214,364.262 272.214,363.595 274.5,363.5 Z"/></g>
<g><path style="opacity:0.898" fill="#9180d5" d="M 167.5,365.5 C 170.152,365.41 172.485,366.076 174.5,367.5C 171.848,367.59 169.515,366.924 167.5,365.5 Z"/></g>
<g><path style="opacity:0.455" fill="#bbb1e3" d="M 108.5,369.5 C 111.089,370.419 113.089,372.086 114.5,374.5C 111.911,373.581 109.911,371.914 108.5,369.5 Z"/></g>
<g><path style="opacity:0.749" fill="#b4a9e0" d="M 114.5,374.5 C 116.749,375.08 118.415,376.413 119.5,378.5C 117.251,377.92 115.585,376.587 114.5,374.5 Z"/></g>
<g><path style="opacity:0.376" fill="#c0b9e5" d="M 119.5,378.5 C 121.027,378.427 122.027,379.094 122.5,380.5C 120.973,380.573 119.973,379.906 119.5,378.5 Z"/></g>
<g><path style="opacity:0.011" fill="#f2f1f8" d="M 265.5,385.5 C 262.316,386.323 258.983,386.99 255.5,387.5C 258.337,385.598 261.671,384.931 265.5,385.5 Z"/></g>
<g><path style="opacity:0.005" fill="#eae8f6" d="M 253.5,387.5 C 250.713,388.477 247.713,388.81 244.5,388.5C 244.167,387.167 243.833,387.167 243.5,388.5C 241.833,388.5 240.167,388.5 238.5,388.5C 238.389,387.883 238.056,387.383 237.5,387C 242.846,386.568 248.18,386.734 253.5,387.5 Z"/></g>
<g><path style="opacity:0.863" fill="#988ad8" d="M 177.5,407.5 C 180.152,407.41 182.485,408.076 184.5,409.5C 181.848,409.59 179.515,408.924 177.5,407.5 Z"/></g>
</svg>
